<svg aria-hidden="true" style="position:absolute;width:0;height:0;overflow:hidden" xmlns="http://www.w3.org/2000/svg">
  <defs>
    <symbol id="arrow" viewBox="0 0 32 32">
      <path stroke-linejoin="round" stroke-linecap="round" stroke-width="3.2" d="M12 8s8 5.892 8 8-8 8-8 8"/>
    </symbol>
    <symbol id="facebook" viewBox="0 0 34 32">
      <path d="M32.208 15.726c0 7.801-5.724 14.269-13.195 15.442V20.275h3.633l.692-4.507h-4.325v-2.924c0-1.234.604-2.435 2.54-2.435h1.966V6.572s-1.785-.305-3.49-.305c-3.561 0-5.888 2.158-5.888 6.065v3.435h-3.959v4.507h3.959v10.894C6.671 29.993.946 23.527.946 15.727.946 7.095 7.945.096 16.577.096s15.631 6.998 15.631 15.631z"/>
    </symbol>
    <symbol id="instagram" viewBox="0 0 32 32">
      <path d="M15.84 2.816c4.174 0 4.668.016 6.316.091 1.704.078 3.458.466 4.7 1.708 1.253 1.253 1.629 2.991 1.708 4.7.075 1.648.091 2.143.091 6.316s-.016 4.668-.091 6.316c-.077 1.695-.474 3.466-1.708 4.7-1.253 1.253-2.989 1.63-4.7 1.708-1.648.075-2.143.091-6.316.091s-4.668-.016-6.316-.091c-1.682-.077-3.477-.483-4.7-1.708-1.247-1.246-1.63-3.001-1.708-4.7-.076-1.648-.091-2.143-.091-6.316s.016-4.668.091-6.316c.077-1.688.478-3.47 1.708-4.7 1.25-1.25 2.995-1.63 4.7-1.708 1.648-.076 2.143-.091 6.316-.091zm0-2.816c-4.245 0-4.778.018-6.445.094-2.416.111-4.816.783-6.562 2.53C1.08 4.377.414 6.771.303 9.187c-.076 1.667-.094 2.2-.094 6.445s.018 4.778.094 6.445c.111 2.414.785 4.82 2.53 6.563 1.752 1.752 4.15 2.419 6.562 2.53 1.667.076 2.2.094 6.445.094s4.778-.018 6.445-.094c2.415-.111 4.817-.784 6.563-2.53 1.755-1.755 2.419-4.148 2.53-6.563.075-1.667.094-2.2.094-6.445s-.018-4.778-.094-6.445c-.111-2.416-.784-4.817-2.53-6.563C27.099.875 24.694.204 22.285.094 20.618.018 20.085 0 15.84 0z"/>
      <path d="M15.841 7.605a8.027 8.027 0 1 0 0 16.054 8.027 8.027 0 0 0 0-16.054zm0 13.236a5.21 5.21 0 1 1 .001-10.421 5.21 5.21 0 0 1-.001 10.421zM24.185 9.162a1.876 1.876 0 1 0 0-3.752 1.876 1.876 0 0 0 0 3.752z"/>
    </symbol>
    <symbol id="list-1" viewBox="0 0 32 32">
      <path stroke-linejoin="round" stroke-linecap="round" stroke-width="2" d="M24 4v6.667M8 4v6.667M27.333 5.333v2m0 0v2m0-2h2m-24.666-2v2m0 0v2m0-2h-2M24 7.333H8M9.702 25.333h12.596c1.65 0 2.475 0 2.816-.403.774-.916-.709-2.126-1.25-2.736-.61-.687-1.056-.861-1.957-.861H10.094c-.901 0-1.347.174-1.957.861-.541.61-2.025 1.82-1.25 2.736.341.403 1.166.403 2.816.403zM12 10.667v10.667m8-10.667v10.667M21.333 25.333V28m-10.666-2.667V28"/>
    </symbol>
    <symbol id="list-2" viewBox="0 0 32 32">
      <path stroke-linejoin="round" stroke-linecap="round" stroke-width="2" d="M10.667 28c0-1.886 0-2.828.586-3.414S12.782 24 14.667 24h2.667c1.886 0 2.828 0 3.414.586s.586 1.529.586 3.414v1.333H10.667V28zM16 17.333V24M8 29.333h16M17.382 3.822l1.408 2.839c.192.395.704.774 1.136.847l2.552.427c1.632.274 2.016 1.468.84 2.645l-1.984 2c-.336.339-.52.992-.416 1.46l.568 2.476c.448 1.96-.584 2.718-2.304 1.694l-2.392-1.428c-.432-.258-1.144-.258-1.584 0l-2.392 1.428c-1.712 1.024-2.752.258-2.304-1.694l.568-2.476c.104-.468-.08-1.121-.416-1.46l-1.984-2c-1.168-1.178-.792-2.371.84-2.645l2.552-.427c.424-.073.936-.452 1.128-.847l1.408-2.839c.768-1.54 2.016-1.54 2.776 0z"/>
    </symbol>
    <symbol id="list-3" viewBox="0 0 32 32">
      <path stroke-linecap="round" stroke-width="2" d="M22.112 8.076c3.113 0 3.949 4.249 2.611 7.046-.599 1.251-1.634 2.351-2.464 3.458-.795 1.062-1.193 1.593-1.715 1.965-1.165.828-2.515.788-3.891.788h-1.375c-3.385 0-5.078 0-6.196-.946s-1.392-2.574-1.94-5.831c-.301-1.791-.513-3.58-.469-5.314.081-3.176 2.513-5.851 5.797-6.377 1.565-.25 3.492-.275 5.057-.009 2.796.475 4.767 2.883 4.572 5.586-.119 1.648-.788 3.345-1.205 4.938"/>
      <path stroke-linecap="round" stroke-width="2" d="M9.339 20.667V24c0 2.514 0 3.771.781 4.552s2.038.781 4.552.781h1.333c2.514 0 3.771 0 4.552-.781s.781-2.038.781-4.552v-4M9.339 25.333h4"/>
    </symbol>
    <symbol id="list-4" viewBox="0 0 32 32">
      <path stroke-linejoin="round" stroke-linecap="round" stroke-width="2" d="m14.007 20.014 8.846-6.015a3.37 3.37 0 0 0 .662-.65c.647-.841.634-2.008.224-2.983a6.071 6.071 0 0 0-5.606-3.698 6.09 6.09 0 0 0-3.371 1.01l-9.439 6.665"/>
      <path stroke-linejoin="round" stroke-linecap="round" stroke-width="2" d="M7.994 18.009c0 .928.491 2.772 2.721 3.279 1.341.305 5.249-.98 3.337-4.703s-6.516-3.742-8.389-2.495c-1.145.695-3.367 2.865-2.946 5.749.15 1.748 1.526 5.293 5.833 5.496h13.188c1.229-.097 1.483-.276 2.419-.994 1.259-1.131 3.363-3.21 4.585-4.579.264-.296.549-.6.585-.995.194-2.102-2.996-1.192-5.307-1.442"/>
    </symbol>
    <symbol id="logo" viewBox="0 0 72 32">
      <path d="M54.296 21.869v3.113h-2.771v-7.039h.464c1.973 0 3.947.003 5.92-.003.535-.001.788-.227.814-.688.03-.524-.239-.787-.842-.789-1.959-.004-3.917.002-5.876.003h-.488v-2.749c.048-.014.101-.044.154-.044 2.105.007 4.209.015 6.314.028.262.002.527.021.786.06 2.067.315 3.135 1.835 2.773 3.912-.215 1.231-.921 2.068-2.078 2.562-.132.056-.266.109-.453.186l2.938 4.589c-.784 0-1.53-.075-2.252.018-.965.125-1.506-.228-1.931-1.063-.532-1.044-1.212-2.015-1.811-3.028-.148-.25-.305-.367-.617-.351-.971.049-1.073-.23-1.047 1.023l.001.257zM43.115 13.684c.389-.057.365.172.365.395-.002 2.412-.001 4.824 0 7.236 0 .157.004.314.009.471.011.35.195.514.556.513.994-.003 1.987-.003 2.981.008.316.003.454-.149.478-.432.011-.128.006-.257.006-.385l-.021-7.365v-.438h2.854c.008.121.023.232.023.343-.001 2.626-.001 5.252-.011 7.879-.001.37-.034.742-.083 1.109-.171 1.287-.768 1.948-2.092 1.991-1.85.06-3.708.024-5.556-.077-1.181-.064-1.728-.661-1.931-1.81a7.119 7.119 0 0 1-.116-1.191c-.01-2.725-.005-5.451-.005-8.247h2.543zM69.219 16.297V13.7h2.829c.01.123.028.246.028.368 0 2.626.006 5.252-.009 7.877a8.073 8.073 0 0 1-.151 1.487c-.166.856-.686 1.46-1.601 1.512-1.616.091-3.236.106-4.855.126a7.87 7.87 0 0 1-1.393-.133c-.955-.161-1.454-.629-1.608-1.558a11.508 11.508 0 0 1-.144-1.788c-.021-2.597-.019-5.194-.024-7.791 0-.027.012-.054.026-.11h2.852v7.802c0 .781.039.817.837.817.877 0 1.753.002 2.63-.002.517-.002.587-.065.588-.57.002-1.798-.003-3.596-.005-5.437zM27.314 14.879c1.332-2.034 3.194-3.174 5.632-3.369 1.59-.127 3.128.091 4.526.887.509.29.961.678 1.489 1.057L36.81 15.7c-1.088-1.002-2.355-1.432-3.818-1.294a3.792 3.792 0 0 0-2.14.892c-1.315 1.109-1.749 3.189-.997 4.84.474 1.042 1.251 1.783 2.383 2.124 1.094.331 2.193.21 3.324-.055v2.978c-2.181.838-5.747-.142-7.488-2.065-1.953-2.158-2.274-5.54-.761-8.241zM46.837 8.794c.095-.008.189-.016.349.002.21.033.355.05.5.047 1.268-.025 2.535-.073 3.803-.075 1.063-.001 2.126.05 3.189.081.058.002.115.036.291.095-.192.04-.256.062-.321.066-.928.059-1.862.069-2.782.184-1.609.202-3.226.396-4.811.724-2.255.467-4.418 1.234-6.499 2.21-.312.146-.611.256-.945.084 0 0 .016-.008.008-.032-.076-.096-.135-.178-.213-.237-.903-.694-1.93-1.157-3.021-1.476-.415-.121-.865-.128-1.299-.187-.042 0-.083 0-.166-.041-.759-.27-1.487-.09-2.211-.087-.027 0-.054.06-.081.091-.041.012-.082.024-.183.015a39.3 39.3 0 0 0-1.429-.11s.012-.003.007-.028c-.335-.544-.7-1.029-1.324-1.245 0 0 .013-.027.007-.043a51.938 51.938 0 0 0-1.058-.729s.017-.02.007-.039c-.69-.363-1.336-.815-2.057-1.025-1.249-.364-2.539-.601-3.821-.84-.473-.088-.976-.029-1.465-.038-.041.002-.081.004-.164-.033-.122-.063-.202-.107-.282-.109-2.113-.034-4.212.071-6.275.567-.106.026-.225.003-.338.003.063-.134.13-.192.208-.212 1.471-.388 2.944-.768 4.415-1.156 1.654-.436 3.351-.53 5.05-.568.945-.021 1.892.038 2.837.077 1.786.074 3.509.455 5.19 1.035.378.13.755.266 1.132.399 0 0-.01.007-.002.032.446.289.884.554 1.322.82 0 0-.012.022-.003.035.039.022.07.031.1.04 0 0-.013.026-.007.044.12.087.235.156.35.226 0 0-.012.012-.003.029.039.027.069.037.099.048 0 0-.036.01-.019.035.609.713 1.438.98 2.281 1.189a9.003 9.003 0 0 0 1.587.225c.807.052 1.617.052 2.425.074.445-.005.89-.01 1.405.01 1.387.002 2.703-.019 4.019-.05.066-.002.131-.083.196-.128zM24.554 16.302c-.599 0-1.155.019-1.71-.006-.333-.015-.419.091-.417.413.016 2.556.013 5.112.014 7.668 0 .651-.001.651-.672.65-.658-.001-1.317-.022-1.973.005-.384.016-.504-.105-.502-.483.015-2.599.008-5.198.008-7.796v-.454h-1.848c-1.137.001-1.138.001-1.142-1.115-.002-.512 0-1.024 0-1.581.19-.01.346-.025.501-.025 2.719-.001 5.439.008 8.158-.008.424-.003.566.122.543.535-.032.57-.039 1.144.001 1.712.029.417-.136.535-.522.489-.13-.016-.263-.003-.438-.003z"/>
      <path d="M33.872 31.53c-.129.002-.223.002-.426.002.158-.098.221-.149.293-.18 1.794-.777 2.843-2.157 2.955-4.027.131-2.185.031-4.383.031-6.613h-3.903V18.11h6.594v1.224c-.001 1.969-.037 3.938.005 5.906.069 3.265-2.026 5.88-5.548 6.291zM9.82 13.564c1.593.001 3.142.009 4.691-.004.352-.003.509.089.475.459-.03.34-.017.685.001 1.027.015.282-.107.38-.385.376-.92-.012-1.841.001-2.761-.02-.706-.015-1.12.089-1.159.865-.005.093-.197.252-.303.254-1.505.019-3.01.014-4.515.02-.251.001-.313-.122-.333-.344-.051-.557-.264-.76-.838-.77a73.423 73.423 0 0 0-2.893-.002c-.393.009-.52-.126-.486-.497a4.93 4.93 0 0 0-.002-.941c-.034-.348.101-.433.443-.431 2.674.013 5.348.008 8.066.008zM33.557 5.105C32.269 3.255 33.14.85 35.228.415c1.448-.302 2.783.37 3.32 1.671.55 1.33.066 2.991-1.078 3.703-1.229.765-2.76.55-3.778-.53-.04-.042-.077-.086-.135-.153z"/>
      <path d="M32.712 28.791s-.027.022-.079.02a3.891 3.891 0 0 0-.461.131c-1.118.39-2.223.823-3.358 1.158-.786.232-1.61.355-2.424.482-1.085.169-2.177.297-3.267.432-.042.005-.097-.095-.146-.146.376-.135.753-.27 1.19-.417 1.079-.228 1.977-.701 2.839-1.251.009-.005.007-.027.01-.041 0 0 .019-.023.068-.022.44-.263.831-.528 1.222-.792 0 0 .012.021.036.019.247-.196.47-.388.692-.581 0 0-.002-.006.027-.007a.498.498 0 0 0 .127-.111s.003.011.028.006c.16-.139.294-.273.429-.407 0 0-.001-.001.027-.004a.89.89 0 0 0 .152-.16s-.002-.007.028-.009c.058-.042.085-.081.113-.121 0 0 .005.01.03.008a1.5 1.5 0 0 0 .179-.224s-.003-.005.027-.008c.054-.043.078-.083.102-.123.008.014.017.028.041.022.04-.066.064-.111.088-.156 0 0 .002.002.032-.003.229-.03.436-.103.625-.071.653.109 1.289.365 1.971.192.096 0 .192 0 .337.039.562.029 1.075.004 1.588.018.137.004.269.129.404.199 0 0-.012-.013-.04-.006-.103.117-.178.226-.253.335 0 0-.008-.011-.031-.008-.071.072-.118.141-.166.21 0 0-.01.025-.052.03-.114.074-.186.144-.259.213 0 0-.006.002-.034 0a2.74 2.74 0 0 0-.312.266s-.022.003-.037-.002a.232.232 0 0 0-.072.071s-.001-.009-.029-.01a7.143 7.143 0 0 0-.505.343s-.001-.008-.031-.006c-.305.165-.58.329-.855.493zM19.639 8.099c.068-.001.136-.002.25.037.43.09.813.15 1.198.189 1.732.177 3.398.581 4.969 1.334.346.166.711.294 1.068.439 0 0-.018.028-.003.041.068.027.121.041.174.055 0 0-.011.008-.002.031.076.104.142.185.239.304-.139 0-.225.016-.303-.003-.603-.144-1.199-.322-1.808-.435-.485-.09-.984-.104-1.477-.152-.069-.005-.138-.009-.252-.056a16.629 16.629 0 0 0-1.706-.265c-.425-.04-.855-.026-1.283-.036-.042.001-.084.002-.17-.037-.574-.089-1.104-.17-1.634-.179a95.643 95.643 0 0 0-3.711.003c-.445.01-.887.129-1.331.198a.853.853 0 0 1-.265.012c-1.238.113-2.414.25-3.589.389-.186.022-.37.052-.555.079a19.82 19.82 0 0 0-.024-.11c.057-.029.111-.067.172-.085 1.334-.389 2.657-.821 4.006-1.148.849-.206 1.739-.25 2.609-.381.329-.05.652-.139.978-.21.095-.009.19-.018.35-.001.744.013 1.422.001 2.101-.012zM10.775 19.551c0 .953 0 .954-.946.955-1.298.002-2.597-.008-3.895.007-.326.004-.433-.098-.419-.418.024-.555.015-1.111-.003-1.667-.008-.258.079-.352.347-.353 1.472-.007 2.945-.025 4.417-.045.357-.005.539.111.503.496-.03.325-.006.655-.006 1.025zM52.181 5.956c1.485.276 2.905.639 4.276 1.169-5.448-1.136-10.936-1.3-16.461-.76 4.024-.89 8.069-1.152 12.185-.409zM.462 21.19a14.217 14.217 0 0 1-.087-1.531c0-.062.177-.174.275-.177.525-.018 1.05-.004 1.576-.012.23-.004.303.096.302.31-.007 1.14-.01 2.28-.001 3.42.002.284-.117.389-.393.367a1.564 1.564 0 0 0-.306.001c-.319.039-.437-.075-.426-.404.024-.768.008-1.537-.015-2.331-.124.569-.586.275-.924.356zM14.912 20.671c-.004.845-.028 1.657.001 2.468.018.49-.295.41-.6.434-.351.027-.484-.077-.481-.445.009-1.081-.023-2.162-.04-3.244-.004-.264.064-.433.394-.419.466.02.934.02 1.399-.002.319-.016.408.114.389.4-.018.269.003.541-.002.812-.004.242.09.535-.357.512-.34-.018-.709.061-.624-.472.006-.036-.022-.077-.034-.116-.014.014-.028.027-.044.074zM11.684 21.952c0-.724.008-1.405-.005-2.086-.005-.287.089-.411.401-.405 1.2.026.962-.141.976.928.012.911-.003 1.822.017 2.732.007.329-.098.459-.447.45-1.09-.027-.94.116-.944-.893-.001-.228.001-.455.001-.726zM4.561 21.095c.001.726-.006 1.41.007 2.093.005.275-.1.384-.384.378-1.043-.023-.918.131-.918-.872 0-.897.013-1.795-.014-2.691-.012-.392.081-.567.527-.547.928.041.76-.092.781.785.007.27.001.541.002.854zM59.328 29.278a1.532 1.532 0 0 1-.296.017c-.041-.002-.08-.022-.162-.047v-1.922l-.859 1.308-.692-1.087-.089.021v1.725h-.514V26.42c.305-.135.512-.026.673.279.187.353.41.688.649 1.085.208-.352.419-.656.574-.985.156-.331.359-.498.749-.367 0 .937 0 1.885-.034 2.847zM33.072 6.142c-.361-.109-.738-.245-1.116-.375-1.681-.58-3.404-.961-5.19-1.035-.945-.039-1.892-.099-2.837-.077-1.699.038-3.395.132-5.05.568-1.471.388-2.944.768-4.415 1.156-.078.021-.146.078-.208.212.113 0 .231.022.338-.003 2.063-.496 4.162-.601 6.275-.567.08.001.16.045.253.099-1.516.099-3.055.084-4.57.264-1.332.158-2.637.535-3.955.815-.153.032-.307.06-.498.019.231-.103.46-.212.694-.308 4.656-1.92 9.491-2.762 14.54-2.262 1.983.196 3.928.563 5.738 1.495zm-19.384.519-.088.101.157.007c-.008-.041-.015-.082-.069-.108zm-.373.187.021-.036c-.012.005-.023.01-.021.036zM39.626 12.238c.321.147.62.037.931-.11 2.081-.976 4.244-1.744 6.499-2.21 1.585-.328 3.202-.522 4.811-.724.92-.115 1.855-.125 2.782-.184.065-.004.129-.026.321-.066-.176-.059-.233-.093-.291-.095-1.063-.031-2.126-.083-3.189-.081-1.268.002-2.535.05-3.803.075a2.663 2.663 0 0 1-.465-.041c3.312-.144 6.653-.288 9.979.214.052.008.103.019.142-.059-2.248.155-4.504.242-6.743.479-3.567.377-6.972 1.36-10.203 2.894-.275.131-.532.255-.771-.092zM44.158 27.965c.11-.091.214-.183.328-.197.214-.026.434-.008.705-.008v1.4c-.817.366-1.784.241-2.244-.278-.42-.474-.452-1.34-.071-1.88.4-.567 1.316-.779 2.185-.508v.453c-.375-.021-.726-.093-1.061-.049-.659.087-.984.613-.834 1.257.126.54.785.918 1.341.706.139-.053.174-.365.228-.49-.2-.271-.597.059-.578-.406zM2.526 17.158c.001.441-.008.841.002 1.24.006.224-.089.302-.312.298a37.308 37.308 0 0 0-1.533-.001c-.242.005-.356-.075-.332-.32.01-.099.014-.201 0-.299-.049-.338.119-.429.431-.395.156.017.316.003.555.003 0-.344.021-.65-.006-.953-.032-.353.056-.526.468-.51.889.034.715-.044.727.936zM13.782 17.412l-.001-.384c-.004-.86-.004-.853.86-.808.238.012.348.092.341.33-.009.27.01.541-.006.811-.017.282.066.407.389.402.631-.011.689.065.591.683-.015.094-.163.235-.255.239a20.42 20.42 0 0 1-1.66-.001c-.089-.004-.235-.155-.244-.249-.031-.325-.013-.654-.014-1.023zM11.687 18.488c-.004-.637.004-1.234-.011-1.832-.007-.295.068-.441.413-.436 1.163.018.94-.095.967.917.011.412-.007.826.007 1.238.008.241-.087.334-.331.322-.247-.013-.497.014-.742-.01-.105-.01-.201-.104-.303-.199zM3.259 18.169c0-.54.01-1.04-.005-1.539-.008-.284.078-.407.395-.412.906-.015.907-.027.912.867.003.442.016.886-.013 1.326-.007.101-.161.262-.261.274-.315.036-.637.013-1.003.013-.01-.185-.018-.337-.026-.529z"/>
      <path d="M17.15 8.105c-.287.078-.61.167-.939.217-.87.131-1.759.175-2.609.381-1.349.328-2.672.759-4.006 1.148-.06.018-.115.056-.172.085l.024.11c.185-.027.37-.057.555-.079 1.175-.139 2.351-.276 3.554-.394-2.259.222-4.508.597-6.669 1.391-.216.079-.458.092-.613.122.777-.335 1.618-.731 2.485-1.06.896-.34 1.808-.644 2.73-.907.908-.258 1.83-.484 2.76-.651.945-.17 1.906-.251 2.898-.364zM9.165 10.18c.011-.009.024-.017.033-.028s.013-.024.019-.036h-.36l.006.085c.084 0 .167 0 .303-.021zM50.561 28.403a15.133 15.133 0 0 0-.503-1.109c-.151-.291-.333-.566-.517-.874.33-.122.576-.094.75.243.162.313.357.61.562.955.201-.318.41-.591.554-.894.161-.337.396-.414.766-.304-.469.914-1.383 1.666-1.031 2.874h-.58v-.891zM22.951 30.858c.073.062.129.162.171.157 1.09-.135 2.182-.263 3.267-.432.814-.127 1.638-.25 2.424-.482 1.135-.335 2.24-.768 3.358-1.158.135-.047.272-.089.444-.131-1.371.76-2.882 1.244-4.447 1.532-1.692.311-3.401.531-5.106.771-.297.042-.608-.024-.913-.025-.065 0-.13.068-.2.072.326-.105.652-.21 1.002-.304zM21.351 6.171c.453-.002.955-.061 1.429.028 1.283.239 2.573.477 3.821.84.721.21 1.367.662 2.05 1.036-2.231-1.29-4.709-1.732-7.3-1.904zM27.109 10.075c-.34-.122-.705-.25-1.052-.416-1.571-.753-3.237-1.156-4.969-1.334a12.296 12.296 0 0 1-1.166-.178c2.531.085 4.948.649 7.187 1.927zM13.896 9.574c.405-.077.847-.196 1.292-.206a95.646 95.646 0 0 1 3.711-.003c.531.009 1.06.09 1.605.166-1.918.02-3.852.011-5.785.007-.261 0-.523.028-.823.036zM41.178 8.952c-.77-.013-1.58-.013-2.387-.065a9.097 9.097 0 0 1-1.587-.225c-.843-.209-1.672-.476-2.263-1.195 1.463 1.2 3.282 1.256 5.063 1.431.377.037.757.031 1.175.055zM23.977 9.95c.46.036.96.05 1.444.14.609.113 1.205.291 1.808.435.078.019.164.003.303.003a3.34 3.34 0 0 1-.235-.31c.384.193.775.415 1.165.637l-.045.032c-1.469-.309-2.939-.617-4.44-.938zM35.119 10.292c.403.047.853.053 1.268.175 1.091.319 2.118.782 3.021 1.476.078.06.137.142.207.244-1.337-.942-2.807-1.622-4.496-1.895zM46.797 8.786c-.025.052-.089.134-.156.135-1.316.03-2.632.051-3.979.056 1.345-.079 2.719-.139 4.134-.191zM26.983 29.165c.028.01.03.031.022.037-.862.549-1.76 1.023-2.811 1.24.897-.424 1.828-.848 2.79-1.277zM20.739 9.592c.392-.001.822-.014 1.248.025.556.052 1.108.146 1.676.248-.953-.07-1.92-.166-2.924-.273zM32.669 10.251c-.012-.039.015-.099.043-.099.723-.002 1.451-.183 2.182.075-.72.03-1.453.031-2.225.024zM33.025 26.598c-.647.183-1.283-.072-1.936-.182-.189-.032-.396.041-.626.07.077-.248.244-.288.522-.23.663.137 1.336.224 2.04.342zM35.413 26.85c-.159-.055-.292-.18-.429-.184-.512-.015-1.026.011-1.553-.008.702-.06 1.418-.091 2.183-.125-.07.119-.123.21-.201.316zM29.715 8.9c.611.191.976.675 1.309 1.225-.43-.38-.863-.79-1.309-1.225zM19.604 8.089c-.643.022-1.322.035-2.03.028.645-.026 1.32-.032 2.03-.028zM34.394 6.992c-.425-.24-.862-.506-1.306-.801.427.239.86.507 1.306.801zM31.029 10.174c.446.003.902.032 1.387.08-.224.065-.486.085-.726.166-.295.1-.494.024-.661-.246zM28.275 28.354c-.361.257-.752.521-1.177.784.36-.26.754-.518 1.177-.784zM28.666 8.126c.335.214.685.452 1.037.72-.34-.212-.681-.454-1.037-.72zM32.743 28.789c.245-.161.52-.325.828-.488a10.16 10.16 0 0 1-.828.488zM29.005 27.793a7.193 7.193 0 0 1-.672.563c.194-.189.419-.371.672-.563zM33.628 28.302c.129-.111.288-.226.479-.338a3.198 3.198 0 0 1-.479.338zM29.618 27.274a3.445 3.445 0 0 1-.407.397c.106-.127.243-.257.407-.397zM34.835 7.336a1.237 1.237 0 0 1-.331-.214c.107.042.213.116.331.214zM35.122 27.184c.048-.1.123-.209.23-.317a1.204 1.204 0 0 1-.23.317zM34.613 27.633a.967.967 0 0 1 .22-.205.99.99 0 0 1-.22.205zM34.268 27.895a1.61 1.61 0 0 1 .287-.259 1.647 1.647 0 0 1-.287.259zM30.148 26.764a.608.608 0 0 1-.159.213.6.6 0 0 1 .159-.213zM34.921 27.386a.567.567 0 0 1 .149-.197.576.576 0 0 1-.149.197zM29.8 27.108a.398.398 0 0 1-.127.154.39.39 0 0 1 .127-.154zM29.942 26.979c-.004.032-.032.071-.086.115.003-.033.033-.07.086-.115zM27.282 10.172c-.039.008-.092-.006-.152-.047.041-.01.09.008.152.047zM30.409 26.499c-.001.037-.025.082-.077.126-.001-.04.026-.079.077-.126zM29.164 27.671c-.008.031-.04.068-.1.107.007-.032.041-.067.1-.107zM30.281 26.634c-.002.031-.027.071-.078.115.001-.033.028-.069.078-.115zM28.548 11.029c-.002 0 .002 0 0 0zM34.155 27.969c-.004-.021.016-.046.06-.069.005.023-.016.044-.06.069zM34.494 7.071c-.02.011-.05.002-.086-.032.022-.012.049 0 .086.032zM34.933 7.417c-.02.01-.05 0-.086-.035.022-.011.049.001.086.035zM13.711 6.654c.031.034.038.075.046.115l-.157-.007a.72.72 0 0 1 .111-.109zM13.308 6.838c.005-.016.017-.021.028-.026-.007.012-.014.024-.028.026z"/>
      <path d="M9.139 10.19c-.11.01-.194.01-.277.01l-.006-.085h.36c-.006.012-.01.026-.019.036s-.021.019-.059.038zM27.76 10.603c-.004.002.004-.002 0 0z"/>
    </symbol>
    <symbol id="star" viewBox="0 0 32 32">
      <path d="m18.764 2.311 2.816 5.678c.384.79 1.408 1.549 2.272 1.694l5.103.855c3.264.548 4.032 2.936 1.68 5.291l-3.967 4c-.672.677-1.04 1.984-.832 2.92l1.136 4.952c.896 3.92-1.168 5.436-4.608 3.387l-4.783-2.855c-.864-.516-2.288-.516-3.168 0L9.63 31.088c-3.424 2.049-5.503.516-4.607-3.387l1.136-4.952c.208-.936-.16-2.242-.832-2.92l-3.968-4c-2.336-2.355-1.584-4.742 1.68-5.291l5.103-.855c.848-.145 1.872-.903 2.256-1.694l2.816-5.678c1.536-3.081 4.032-3.081 5.551 0z"/>
    </symbol>
    <symbol id="success" viewBox="0 0 32 32">
      <path stroke-linejoin="round" stroke-linecap="round" stroke-width="4" d="m6.664 18.667 3.219 3.219a2 2 0 0 0 2.861-.033L25.331 8.667"/>
    </symbol>
    <symbol id="twitter" viewBox="0 0 32 32">
      <path d="M28.06 9.254c.018.275.018.551.018.828 0 8.476-6.453 18.249-18.249 18.249v-.005a18.161 18.161 0 0 1-9.831-2.875 12.87 12.87 0 0 0 9.492-2.658 6.42 6.42 0 0 1-5.992-4.455 6.427 6.427 0 0 0 2.896-.109 6.414 6.414 0 0 1-5.145-6.288v-.081c.892.498 1.89.772 2.911.802A6.418 6.418 0 0 1 2.174 4.1a18.21 18.21 0 0 0 13.219 6.702 6.42 6.42 0 0 1 10.93-5.85 12.846 12.846 0 0 0 4.073-1.557 6.44 6.44 0 0 1-2.82 3.548 12.85 12.85 0 0 0 3.685-1.011 13.05 13.05 0 0 1-3.2 3.32z"/>
    </symbol>
  </defs>
</svg>
